<svg xmlns="http://www.w3.org/2000/svg" width="512" height="512" viewBox="51.2 51.2 409.6 409.6" aria-labelledby="logo-title" role="img">
  <title id="logo-title">remiscan</title>
  <defs>
    <mask id="remiscan-logo-mask">
      <rect x="0" y="0" width="100%" height="100%" fill="black"/>
      <!-- 
        r
        scale 5: translate(0 -109) to move to top left corner
        scale 4: translate(0 -87) """"""
      -->
      <g transform="translate(130 43) scale(4)" fill="white" stroke="black" stroke-width="12" stroke-linecap="round" stroke-linejoin="round" paint-order="stroke fill" >
      <path d="M 12.35 74.15 L 0 74.15 L 0 22.85 L 7.25 22.85 A 9.883 9.883 0 0 1 7.426 22.852 Q 9.185 22.883 9.9 23.55 A 2.041 2.041 0 0 1 10.014 23.665 Q 10.67 24.383 10.9 25.95 L 11.65 32.15 A 32.672 32.672 0 0 1 11.823 31.855 Q 14.516 27.314 18.1 24.65 A 15.245 15.245 0 0 1 18.507 24.357 Q 21.975 21.953 26.212 21.901 A 15.299 15.299 0 0 1 26.4 21.9 Q 30.2 21.9 32.7 23.65 L 31.1 32.9 Q 30.969 33.684 30.573 34.07 A 1.263 1.263 0 0 1 30.45 34.175 Q 29.964 34.54 29.147 34.55 A 3.788 3.788 0 0 1 29.1 34.55 Q 28.386 34.55 27.172 34.233 A 17.98 17.98 0 0 1 27.05 34.2 Q 25.75 33.85 23.6 33.85 A 13.676 13.676 0 0 0 23.241 33.855 Q 19.784 33.945 17.238 35.796 A 10.184 10.184 0 0 0 17 35.975 A 11.775 11.775 0 0 0 16.66 36.248 Q 14.221 38.282 12.477 41.931 A 25.097 25.097 0 0 0 12.35 42.2 L 12.35 74.15 Z"/>
      </g>
      <!--
        scan
        scale 5: translate(320 246) to move to bottom right corner
        scale 4: translate(358 299) """"""
      -->
      <g transform="translate(228 169) scale(4)" fill="white" stroke="black" stroke-width="12" stroke-linecap="round" stroke-linejoin="round" paint-order="stroke fill" >
      <path d="M 37.75 6.5 L 34.95 10.95 A 5.774 5.774 0 0 1 34.872 11.072 Q 34.407 11.775 33.9 12.075 A 1.96 1.96 0 0 1 33.725 12.166 Q 33.237 12.392 32.546 12.4 A 4.381 4.381 0 0 1 32.5 12.4 A 3.332 3.332 0 0 1 32.273 12.392 Q 31.472 12.338 30.575 11.9 Q 29.55 11.4 28.2 10.775 Q 26.85 10.15 25.125 9.65 A 10.102 10.102 0 0 0 24.907 9.589 Q 23.289 9.16 21.146 9.15 A 21.934 21.934 0 0 0 21.05 9.15 A 16.852 16.852 0 0 0 20.823 9.152 Q 17.334 9.198 15.3 10.7 Q 13.208 12.244 13.2 14.732 A 5.906 5.906 0 0 0 13.2 14.75 Q 13.2 16.4 14.275 17.525 A 7.142 7.142 0 0 0 14.483 17.734 Q 15.489 18.704 17.041 19.46 A 13.951 13.951 0 0 0 17.125 19.5 A 21.701 21.701 0 0 0 17.349 19.606 Q 18.928 20.34 20.872 20.94 A 35.707 35.707 0 0 0 21.15 21.025 A 122.558 122.558 0 0 1 21.714 21.196 Q 23.694 21.8 25.75 22.5 A 50.039 50.039 0 0 1 27.498 23.132 A 49.699 49.699 0 0 1 30.35 24.325 A 17.285 17.285 0 0 1 30.871 24.573 Q 32.808 25.535 34.375 26.925 Q 35.966 28.337 36.995 30.251 A 13.07 13.07 0 0 1 37.225 30.7 Q 38.255 32.808 38.298 35.742 A 17.555 17.555 0 0 1 38.3 36 A 19.993 19.993 0 0 1 38.295 36.46 Q 38.232 39.184 37.423 41.591 A 15.833 15.833 0 0 1 36.95 42.825 A 15.44 15.44 0 0 1 36.686 43.403 Q 35.356 46.163 33 48.225 Q 30.524 50.392 26.936 51.652 A 23.975 23.975 0 0 1 26.575 51.775 A 21.098 21.098 0 0 1 26.093 51.929 Q 22.441 53.05 17.8 53.05 A 29.314 29.314 0 0 1 17.139 53.043 Q 15.332 53.002 13.583 52.738 A 27.068 27.068 0 0 1 12.625 52.575 Q 10.1 52.1 7.775 51.25 Q 5.54 50.433 3.628 49.338 A 24.092 24.092 0 0 1 3.475 49.25 A 25.044 25.044 0 0 1 3.23 49.105 Q 1.47 48.054 0.099 46.838 A 17.556 17.556 0 0 1 0 46.75 L 2.85 42.05 Q 3.4 41.2 4.15 40.75 Q 4.863 40.322 5.938 40.301 A 5.73 5.73 0 0 1 6.05 40.3 A 3.975 3.975 0 0 1 6.433 40.318 Q 7.372 40.409 8.225 40.95 A 33.733 33.733 0 0 0 8.354 41.032 Q 9.264 41.603 10.421 42.25 A 66.316 66.316 0 0 0 10.6 42.35 A 15.33 15.33 0 0 0 10.771 42.443 Q 11.976 43.093 13.543 43.666 A 29.003 29.003 0 0 0 13.775 43.75 A 8.258 8.258 0 0 0 14 43.826 Q 15.695 44.376 18.179 44.399 A 23.628 23.628 0 0 0 18.4 44.4 A 17.953 17.953 0 0 0 18.673 44.398 Q 20.545 44.37 21.949 43.947 A 8.144 8.144 0 0 0 22.175 43.875 A 11.099 11.099 0 0 0 22.418 43.791 Q 23.736 43.317 24.647 42.603 A 5.988 5.988 0 0 0 24.775 42.5 A 6.142 6.142 0 0 0 24.962 42.338 Q 25.701 41.674 26.123 40.851 A 4.837 4.837 0 0 0 26.275 40.525 A 6.259 6.259 0 0 0 26.412 40.172 Q 26.7 39.353 26.743 38.495 A 6 6 0 0 0 26.75 38.2 Q 26.75 36.4 25.675 35.25 Q 24.6 34.1 22.825 33.25 A 21.097 21.097 0 0 0 22.601 33.144 Q 20.908 32.358 18.775 31.725 A 124.509 124.509 0 0 1 18.205 31.554 Q 16.302 30.98 14.329 30.319 A 144.706 144.706 0 0 1 14.125 30.25 A 42.937 42.937 0 0 1 10.907 29.02 A 43.265 43.265 0 0 1 9.475 28.375 A 17.024 17.024 0 0 1 8.949 28.115 Q 6.992 27.107 5.425 25.65 Q 3.784 24.124 2.741 21.957 A 14.386 14.386 0 0 1 2.575 21.6 A 10.125 10.125 0 0 1 2.445 21.296 Q 1.5 18.988 1.5 15.8 A 15.674 15.674 0 0 1 1.511 15.212 Q 1.606 12.669 2.532 10.325 A 15.166 15.166 0 0 1 2.75 9.8 A 14.022 14.022 0 0 1 3.081 9.099 Q 4.303 6.684 6.425 4.825 Q 8.75 2.787 12.179 1.531 A 24.277 24.277 0 0 1 12.475 1.425 A 19.037 19.037 0 0 1 12.933 1.271 Q 16.397 0.15 20.85 0.15 A 31.703 31.703 0 0 1 21.345 0.154 Q 26.08 0.228 30.044 1.722 A 22.318 22.318 0 0 1 30.5 1.9 A 27.764 27.764 0 0 1 30.905 2.066 Q 34.986 3.784 37.75 6.5 Z"/>
      </g>
    </mask>
  </defs>
  <rect class="background" x="0" y="0" width="512" height="512" fill="#170C17"/>
  <rect class="background" x="256" y="-150" width="512" height="812" fill="#2F182F" transform-origin="256 256" transform="rotate(75)"/>
  <rect class="text" x="0" y="0" width="512" height="512" fill="#8C488C" mask="url(#remiscan-logo-mask)"/>
</svg>