<svg viewBox="0 0 24 24" style="display: none">
  <defs>
    <g id="email-closed">
      <path d="M20 4H4c-1.1 0-1.99.9-1.99 2L2 18c0 1.1.9 2 2 2h16c1.1 0 2-.9 2-2V6c0-1.1-.9-2-2-2zm0 4l-8 5-8-5V6l8 5 8-5v2z" fill="white"/>
      <path d="M0 0h24v24H0z" fill="none"/>
    </g>

    <g id="email-open">
      <path d="M21.99 8c0-.72-.37-1.35-.94-1.7L12 1 2.95 6.3C2.38 6.65 2 7.28 2 8v10c0 1.1.9 2 2 2h16c1.1 0 2-.9 2-2l-.01-10zM12 13L3.74 7.84 12 3l8.26 4.84L12 13z" fill="white"/>
      <path d="M0 0h24v24H0z" fill="none"/>
    </g>

    <g id="linkedin">
      <path d="M4.98 3.5c0 1.381-1.11 2.5-2.48 2.5s-2.48-1.119-2.48-2.5c0-1.38 1.11-2.5 2.48-2.5s2.48 1.12 2.48 2.5zm.02 4.5h-5v16h5v-16zm7.982 0h-4.968v16h4.969v-8.399c0-4.67 6.029-5.052 6.029 0v8.399h4.988v-10.131c0-7.88-8.922-7.593-11.018-3.714v-2.155z" fill="white"/>
    </g>

    <g id="error">
      <path d="M0 0h24v24H0z" fill="none"/>
      <path d="M1 21h22L12 2 1 21zm12-3h-2v-2h2v2zm0-4h-2v-4h2v4z"/>
    </g>

    <g id="close">
      <path d="M19 6.41L17.59 5 12 10.59 6.41 5 5 6.41 10.59 12 5 17.59 6.41 19 12 13.41 17.59 19 19 17.59 13.41 12z"/>
      <path d="M0 0h24v24H0z" fill="none"/>
    </g>

    <g id="video-play">
      <path d="M0 0h24v24H0z" fill="none"/>
      <path d="M12 2C6.48 2 2 6.48 2 12s4.48 10 10 10 10-4.48 10-10S17.52 2 12 2zm-2 14.5v-9l6 4.5-6 4.5z"/>
    </g>

    <g id="video-pause">
      <path d="M0 0h24v24H0z" fill="none"/>
      <path d="M12 2C6.48 2 2 6.48 2 12s4.48 10 10 10 10-4.48 10-10S17.52 2 12 2zm-1 14H9V8h2v8zm4 0h-2V8h2v8z"/>
    </g>

    <g id="arrow-back">
      <path d="M20 11H7.83l5.59-5.59L12 4l-8 8 8 8 1.41-1.41L7.83 13H20v-2z"/>
      <path d="M0 0h24v24H0z" fill="none"/>
    </g>
  </defs>
</svg>

<svg viewBox="0 0 16 16" style="display: none">
  <defs>
    <g id="github">
      <path fill-rule="evenodd" d="M8 0C3.58 0 0 3.58 0 8c0 3.54 2.29 6.53 5.47 7.59.4.07.55-.17.55-.38 0-.19-.01-.82-.01-1.49-2.01.37-2.53-.49-2.69-.94-.09-.23-.48-.94-.82-1.13-.28-.15-.68-.52-.01-.53.63-.01 1.08.58 1.23.82.72 1.21 1.87.87 2.33.66.07-.52.28-.87.51-1.07-1.78-.2-3.64-.89-3.64-3.95 0-.87.31-1.59.82-2.15-.08-.2-.36-1.02.08-2.12 0 0 .67-.21 2.2.82.64-.18 1.32-.27 2-.27.68 0 1.36.09 2 .27 1.53-1.04 2.2-.82 2.2-.82.44 1.1.16 1.92.08 2.12.51.56.82 1.27.82 2.15 0 3.07-1.87 3.75-3.65 3.95.29.25.54.73.54 1.48 0 1.07-.01 1.93-.01 2.2 0 .21.15.46.55.38A8.013 8.013 0 0 0 16 8c0-4.42-3.58-8-8-8z" fill="white"></path>
    </g>
  </defs>
</svg>
    
<svg viewBox="0 0 266.893 266.895" style="display: none">
  <defs>
    <g id="facebook">
      <path id="Blue_1_" fill="transparent" d="M248.082,262.307c7.854,0,14.223-6.369,14.223-14.225V18.812 c0-7.857-6.368-14.224-14.223-14.224H18.812c-7.857,0-14.224,6.367-14.224,14.224v229.27c0,7.855,6.366,14.225,14.224,14.225 H248.082z"/>
      <path id="f" fill="white" d="M182.409,262.307v-99.803h33.499l5.016-38.895h-38.515V98.777c0-11.261,3.127-18.935,19.275-18.935 l20.596-0.009V45.045c-3.562-0.474-15.788-1.533-30.012-1.533c-29.695,0-50.025,18.126-50.025,51.413v28.684h-33.585v38.895h33.585 v99.803H182.409z"/>
    </g>
  </defs>
</svg>

<svg viewBox="0 0 400 400" style="display: none">
  <defs>
    <g id="twitter">
      <rect fill="transparent" width="400" height="400"/>
      <path d="M153.6,301.6c94.3,0,145.9-78.2,145.9-145.9c0-2.2,0-4.4-0.1-6.6c10-7.2,18.7-16.3,25.6-26.6 c-9.2,4.1-19.1,6.8-29.5,8.1c10.6-6.3,18.7-16.4,22.6-28.4c-9.9,5.9-20.9,10.1-32.6,12.4c-9.4-10-22.7-16.2-37.4-16.2 c-28.3,0-51.3,23-51.3,51.3c0,4,0.5,7.9,1.3,11.7c-42.6-2.1-80.4-22.6-105.7-53.6c-4.4,7.6-6.9,16.4-6.9,25.8 c0,17.8,9.1,33.5,22.8,42.7c-8.4-0.3-16.3-2.6-23.2-6.4c0,0.2,0,0.4,0,0.7c0,24.8,17.7,45.6,41.1,50.3c-4.3,1.2-8.8,1.8-13.5,1.8 c-3.3,0-6.5-0.3-9.6-0.9c6.5,20.4,25.5,35.2,47.9,35.6c-17.6,13.8-39.7,22-63.7,22c-4.1,0-8.2-0.2-12.2-0.7 C97.7,293.1,124.7,301.6,153.6,301.6" fill="white"/>
    </g>
  </defs>
</svg>

<svg viewBox="-1 0 122 120" style="display: none">
  <defs>
    <g id="codepen">
      <path d="M97.07 48.28l-.026-.14-.056-.267c-.014-.053-.033-.104-.05-.154l-.082-.232c-.02-.053-.047-.105-.07-.156l-.108-.2-.09-.148-.135-.193-.11-.138-.16-.172-.127-.125-.18-.152-.145-.11c-.02-.012-.035-.027-.053-.04l-33.9-22.61a3.19 3.19 0 0 0-3.537 0L24.268 46.084l-.144.11-.18.152c-.045.04-.086.082-.128.125l-.158.172-.1.138-.134.193-.092.148-.108.2-.07.156-.082.232-.05.154c-.023.087-.04.177-.056.267l-.025.14c-.02.137-.03.275-.03.416v22.607c0 .14.01.28.03.418l.025.137.056.268.05.154.082.233c.02.053.047.104.07.154l.108.213.092.146.134.193.1.14.158.172.128.124.18.152.144.11c.02.012.035.027.053.04l33.91 22.607a3.19 3.19 0 0 0 1.769.537c.616 0 1.233-.18 1.768-.537l34.11-22.752.18-.152c.044-.038.085-.08.127-.124l.16-.172.11-.14.135-.193.09-.146a2.66 2.66 0 0 0 .108-.213l.07-.154.082-.233.05-.154c.023-.088.04-.178.056-.268l.026-.137c.018-.14.028-.277.028-.418V48.697c0-.14-.01-.28-.03-.416zM63.188 32.048L88.17 48.7l-11.158 7.465L63.19 46.92v-14.87zm-6.376 0v14.87L43 56.166 31.83 48.7l24.98-16.653zM29.278 54.665L37.255 60l-7.977 5.335v-10.67zm27.534 33.288L31.83 71.3 43 63.837l13.822 9.245v14.87zM60 67.543L48.723 60 60 52.458 71.276 60 60 67.543zm3.188 20.4v-14.87l13.823-9.245L88.17 71.3 63.188 87.953zm27.535-22.617L82.746 60l7.977-5.335v10.67z" fill="white"/>
    </g>
  </defs>
</svg>