<svg viewBox="0 0 24 24" style="display: none">
  <defs>
    <g id="email-closed">
      <path d="M20 4H4c-1.1 0-1.99.9-1.99 2L2 18c0 1.1.9 2 2 2h16c1.1 0 2-.9 2-2V6c0-1.1-.9-2-2-2zm0 4l-8 5-8-5V6l8 5 8-5v2z" fill="white"/>
      <path d="M0 0h24v24H0z" fill="none"/>
    </g>

    <g id="email-open">
      <path d="M21.99 8c0-.72-.37-1.35-.94-1.7L12 1 2.95 6.3C2.38 6.65 2 7.28 2 8v10c0 1.1.9 2 2 2h16c1.1 0 2-.9 2-2l-.01-10zM12 13L3.74 7.84 12 3l8.26 4.84L12 13z" fill="white"/>
      <path d="M0 0h24v24H0z" fill="none"/>
    </g>

    <g id="linkedin">
      <path d="M4.98 3.5c0 1.381-1.11 2.5-2.48 2.5s-2.48-1.119-2.48-2.5c0-1.38 1.11-2.5 2.48-2.5s2.48 1.12 2.48 2.5zm.02 4.5h-5v16h5v-16zm7.982 0h-4.968v16h4.969v-8.399c0-4.67 6.029-5.052 6.029 0v8.399h4.988v-10.131c0-7.88-8.922-7.593-11.018-3.714v-2.155z" fill="white"/>
    </g>

    <g id="error">
      <path d="M0 0h24v24H0z" fill="none"/>
      <path d="M1 21h22L12 2 1 21zm12-3h-2v-2h2v2zm0-4h-2v-4h2v4z"/>
    </g>

    <g id="close">
      <path d="M19 6.41L17.59 5 12 10.59 6.41 5 5 6.41 10.59 12 5 17.59 6.41 19 12 13.41 17.59 19 19 17.59 13.41 12z"/>
      <path d="M0 0h24v24H0z" fill="none"/>
    </g>

    <g id="video-play">
      <path d="M0 0h24v24H0z" fill="none"/>
      <path d="M12 2C6.48 2 2 6.48 2 12s4.48 10 10 10 10-4.48 10-10S17.52 2 12 2zm-2 14.5v-9l6 4.5-6 4.5z"/>
    </g>

    <g id="video-pause">
      <path d="M0 0h24v24H0z" fill="none"/>
      <path d="M12 2C6.48 2 2 6.48 2 12s4.48 10 10 10 10-4.48 10-10S17.52 2 12 2zm-1 14H9V8h2v8zm4 0h-2V8h2v8z"/>
    </g>

    <g id="arrow-back">
      <path d="M15.41 7.41L14 6l-6 6 6 6 1.41-1.41L10.83 12z"/>
      <path d="M0 0h24v24H0z" fill="none"/>
    </g>
  </defs>
</svg>

<svg viewBox="0 0 16 16" style="display: none">
  <defs>
    <g id="github">
      <path fill-rule="evenodd" d="M8 0C3.58 0 0 3.58 0 8c0 3.54 2.29 6.53 5.47 7.59.4.07.55-.17.55-.38 0-.19-.01-.82-.01-1.49-2.01.37-2.53-.49-2.69-.94-.09-.23-.48-.94-.82-1.13-.28-.15-.68-.52-.01-.53.63-.01 1.08.58 1.23.82.72 1.21 1.87.87 2.33.66.07-.52.28-.87.51-1.07-1.78-.2-3.64-.89-3.64-3.95 0-.87.31-1.59.82-2.15-.08-.2-.36-1.02.08-2.12 0 0 .67-.21 2.2.82.64-.18 1.32-.27 2-.27.68 0 1.36.09 2 .27 1.53-1.04 2.2-.82 2.2-.82.44 1.1.16 1.92.08 2.12.51.56.82 1.27.82 2.15 0 3.07-1.87 3.75-3.65 3.95.29.25.54.73.54 1.48 0 1.07-.01 1.93-.01 2.2 0 .21.15.46.55.38A8.013 8.013 0 0 0 16 8c0-4.42-3.58-8-8-8z" fill="white"></path>
    </g>
  </defs>
</svg>
    
<svg viewBox="0 0 266.893 266.895" style="display: none">
  <defs>
    <g id="facebook">
      <path id="Blue_1_" fill="transparent" d="M248.082,262.307c7.854,0,14.223-6.369,14.223-14.225V18.812
        c0-7.857-6.368-14.224-14.223-14.224H18.812c-7.857,0-14.224,6.367-14.224,14.224v229.27c0,7.855,6.366,14.225,14.224,14.225
        H248.082z"/>
      <path id="f" fill="white" d="M182.409,262.307v-99.803h33.499l5.016-38.895h-38.515V98.777c0-11.261,3.127-18.935,19.275-18.935
        l20.596-0.009V45.045c-3.562-0.474-15.788-1.533-30.012-1.533c-29.695,0-50.025,18.126-50.025,51.413v28.684h-33.585v38.895h33.585
        v99.803H182.409z"/>
    </g>
  </defs>
</svg>

<svg viewBox="0 0 400 400" style="display: none">
  <defs>
    <g id="twitter">
      <rect fill="transparent" width="400" height="400"/>
      <path d="M153.6,301.6c94.3,0,145.9-78.2,145.9-145.9c0-2.2,0-4.4-0.1-6.6c10-7.2,18.7-16.3,25.6-26.6
        c-9.2,4.1-19.1,6.8-29.5,8.1c10.6-6.3,18.7-16.4,22.6-28.4c-9.9,5.9-20.9,10.1-32.6,12.4c-9.4-10-22.7-16.2-37.4-16.2
        c-28.3,0-51.3,23-51.3,51.3c0,4,0.5,7.9,1.3,11.7c-42.6-2.1-80.4-22.6-105.7-53.6c-4.4,7.6-6.9,16.4-6.9,25.8
        c0,17.8,9.1,33.5,22.8,42.7c-8.4-0.3-16.3-2.6-23.2-6.4c0,0.2,0,0.4,0,0.7c0,24.8,17.7,45.6,41.1,50.3c-4.3,1.2-8.8,1.8-13.5,1.8
        c-3.3,0-6.5-0.3-9.6-0.9c6.5,20.4,25.5,35.2,47.9,35.6c-17.6,13.8-39.7,22-63.7,22c-4.1,0-8.2-0.2-12.2-0.7
        C97.7,293.1,124.7,301.6,153.6,301.6" fill="white"/>
    </g>
  </defs>
</svg>

<svg viewBox="-1 0 122 120" style="display: none">
  <defs>
    <g id="codepen" viewBox="-1 0 122 120">
      <path class="outer-ring" d="M60,0C26.863,0,0,26.863,0,60c0,33.138,26.863,60,60,60c33.137,0,60-26.861,60-60C120,26.863,93.138,0,60,0z M60,110.146
		    C32.35,110.146,9.854,87.65,9.854,60S32.35,9.854,60,9.854c27.65,0,50.145,22.496,50.145,50.146S87.65,110.146,60,110.146z" fill="transparent"/>
	    <path class="inner-box" d="M97.071,48.281c-0.007-0.047-0.019-0.092-0.026-0.139c-0.016-0.09-0.032-0.18-0.056-0.267
        c-0.014-0.053-0.033-0.104-0.05-0.154c-0.025-0.078-0.051-0.156-0.082-0.232c-0.021-0.053-0.047-0.105-0.071-0.156
        c-0.033-0.072-0.068-0.142-0.108-0.21c-0.029-0.051-0.061-0.1-0.091-0.148c-0.043-0.066-0.087-0.131-0.135-0.193
        c-0.035-0.047-0.072-0.093-0.109-0.138c-0.051-0.059-0.104-0.117-0.159-0.172c-0.042-0.043-0.083-0.086-0.127-0.125
        c-0.059-0.053-0.119-0.104-0.18-0.152c-0.048-0.037-0.095-0.074-0.145-0.109c-0.019-0.012-0.035-0.027-0.053-0.039L61.769,23.438
        c-1.071-0.714-2.466-0.714-3.537,0L24.321,46.045c-0.018,0.012-0.034,0.027-0.053,0.039c-0.05,0.035-0.097,0.072-0.144,0.109
        c-0.062,0.049-0.123,0.1-0.181,0.152c-0.045,0.039-0.086,0.082-0.128,0.125c-0.055,0.055-0.108,0.113-0.158,0.172
        c-0.038,0.045-0.075,0.091-0.11,0.138c-0.047,0.062-0.092,0.127-0.134,0.193c-0.032,0.049-0.062,0.098-0.092,0.148
        c-0.039,0.068-0.074,0.139-0.108,0.21c-0.024,0.051-0.049,0.104-0.071,0.156c-0.031,0.076-0.057,0.154-0.082,0.232
        c-0.017,0.051-0.035,0.102-0.05,0.154c-0.023,0.087-0.039,0.177-0.056,0.267c-0.008,0.047-0.02,0.092-0.025,0.139
        c-0.019,0.137-0.029,0.275-0.029,0.416v22.607c0,0.141,0.011,0.279,0.029,0.418c0.006,0.045,0.018,0.092,0.025,0.137
        c0.017,0.09,0.032,0.18,0.056,0.268c0.015,0.053,0.033,0.104,0.05,0.154c0.025,0.078,0.051,0.155,0.082,0.233
        c0.021,0.053,0.047,0.104,0.071,0.154c0.034,0.072,0.069,0.143,0.108,0.213c0.029,0.049,0.06,0.098,0.092,0.146
        c0.042,0.066,0.087,0.131,0.134,0.193c0.035,0.049,0.072,0.094,0.11,0.139c0.05,0.059,0.103,0.117,0.158,0.172
        c0.042,0.043,0.083,0.086,0.128,0.124c0.058,0.053,0.118,0.104,0.181,0.152c0.047,0.037,0.094,0.074,0.144,0.109
        c0.019,0.012,0.035,0.027,0.053,0.039l33.911,22.607c0.536,0.357,1.152,0.537,1.769,0.537c0.616,0,1.233-0.18,1.768-0.537
        L95.68,73.956c0.018-0.012,0.034-0.027,0.053-0.039c0.05-0.035,0.097-0.072,0.145-0.109c0.061-0.049,0.121-0.1,0.18-0.152
        c0.044-0.038,0.085-0.081,0.127-0.124c0.056-0.055,0.108-0.113,0.159-0.172c0.037-0.045,0.074-0.09,0.109-0.139
        c0.048-0.062,0.092-0.127,0.135-0.193c0.03-0.049,0.062-0.098,0.091-0.146c0.04-0.07,0.075-0.141,0.108-0.213
        c0.024-0.051,0.05-0.102,0.071-0.154c0.031-0.078,0.057-0.155,0.082-0.233c0.017-0.051,0.036-0.102,0.05-0.154
        c0.023-0.088,0.04-0.178,0.056-0.268c0.008-0.045,0.02-0.092,0.026-0.137c0.018-0.139,0.028-0.277,0.028-0.418V48.697
        C97.1,48.557,97.089,48.418,97.071,48.281z M63.188,32.048L88.17,48.701l-11.158,7.465l-13.823-9.247V32.048z M56.812,32.048
        v14.871l-13.822,9.247l-11.159-7.465L56.812,32.048z M29.278,54.665L37.255,60l-7.977,5.335V54.665z M56.812,87.953L31.831,71.3
        l11.159-7.463l13.822,9.245V87.953z M60,67.543L48.723,60L60,52.458L71.276,60L60,67.543z M63.188,87.953V73.082l13.823-9.245
        L88.17,71.3L63.188,87.953z M90.723,65.336L82.746,60l7.977-5.335V65.336z" fill="white"/>
    </g>
  </defs>
</svg>